<?xml version="1.0" encoding="UTF-8"?>
<svg xmlns="http://www.w3.org/2000/svg" xmlns:xlink="http://www.w3.org/1999/xlink" width="32px" height="32px" viewBox="0 0 32 31" version="1.1">
<g id="surface1">
<path style=" stroke:none;fill-rule:nonzero;fill:rgb(0%,0%,50.196078%);fill-opacity:1;" d="M 28.230469 15.503906 C 28.230469 8.960938 22.75 3.652344 16 3.652344 C 9.25 3.652344 3.769531 8.960938 3.769531 15.503906 C 3.769531 22.042969 9.25 27.351562 16 27.351562 C 22.75 27.351562 28.230469 22.042969 28.230469 15.503906 "/>
<path style=" stroke:none;fill-rule:nonzero;fill:rgb(100%,100%,100%);fill-opacity:1;" d="M 24.652344 10.59375 C 24.652344 8.679688 23.046875 7.125 21.070312 7.125 C 19.09375 7.125 17.488281 8.679688 17.488281 10.59375 C 17.488281 12.507812 19.09375 14.0625 21.070312 14.0625 C 23.046875 14.0625 24.652344 12.507812 24.652344 10.59375 "/>
<path style=" stroke:none;fill-rule:nonzero;fill:rgb(0%,0%,50.196078%);fill-opacity:1;" d="M 31.8125 3.648438 C 31.8125 1.734375 30.210938 0.179688 28.230469 0.179688 C 26.253906 0.179688 24.652344 1.734375 24.652344 3.648438 C 24.652344 5.566406 26.253906 7.121094 28.230469 7.121094 C 30.210938 7.121094 31.8125 5.566406 31.8125 3.648438 "/>
<path style=" stroke:none;fill-rule:nonzero;fill:rgb(100%,100%,100%);fill-opacity:1;" d="M 8.722656 20.550781 L 12.683594 20.550781 L 12.683594 21.425781 L 7.699219 21.425781 L 7.699219 13.652344 L 8.722656 13.652344 Z M 8.722656 20.550781 "/>
<path style=" stroke:none;fill-rule:nonzero;fill:rgb(100%,100%,100%);fill-opacity:1;" d="M 17.417969 21.425781 L 17.417969 20.644531 C 16.878906 21.382812 16.339844 21.671875 15.492188 21.671875 C 14.371094 21.671875 13.65625 21.074219 13.65625 20.144531 L 13.65625 15.835938 L 14.566406 15.835938 L 14.566406 19.792969 C 14.566406 20.464844 15.03125 20.894531 15.757812 20.894531 C 16.714844 20.894531 17.332031 20.148438 17.332031 19.007812 L 17.332031 15.835938 L 18.242188 15.835938 L 18.242188 21.425781 Z M 17.417969 21.425781 "/>
<path style=" stroke:none;fill-rule:nonzero;fill:rgb(100%,100%,100%);fill-opacity:1;" d="M 24.953125 21.574219 C 24.652344 21.652344 24.511719 21.671875 24.324219 21.671875 C 23.726562 21.671875 23.441406 21.414062 23.375 20.847656 C 22.726562 21.425781 22.144531 21.671875 21.417969 21.671875 C 20.25 21.671875 19.523438 21.03125 19.523438 20.015625 C 19.523438 19.289062 19.867188 18.789062 20.539062 18.523438 C 20.890625 18.386719 21.089844 18.34375 22.386719 18.183594 C 23.113281 18.097656 23.34375 17.9375 23.34375 17.566406 L 23.34375 17.328125 C 23.34375 16.796875 22.878906 16.5 22.054688 16.5 C 21.195312 16.5 20.777344 16.804688 20.699219 17.492188 L 19.773438 17.492188 C 19.796875 16.9375 19.90625 16.617188 20.167969 16.328125 C 20.554688 15.914062 21.246094 15.675781 22.085938 15.675781 C 23.503906 15.675781 24.253906 16.210938 24.253906 17.203125 L 24.253906 20.488281 C 24.253906 20.765625 24.429688 20.925781 24.75 20.925781 C 24.804688 20.925781 24.851562 20.925781 24.953125 20.90625 Z M 23.34375 18.664062 C 23.035156 18.800781 22.835938 18.84375 21.867188 18.96875 C 20.886719 19.105469 20.476562 19.410156 20.476562 19.996094 C 20.476562 20.5625 20.894531 20.890625 21.613281 20.890625 C 22.152344 20.890625 22.601562 20.722656 22.976562 20.390625 C 23.25 20.144531 23.34375 19.964844 23.34375 19.664062 Z M 23.34375 18.664062 "/>
<path style="fill:none;stroke-width:10.8612;stroke-linecap:butt;stroke-linejoin:miter;stroke:rgb(50.196078%,50.196078%,50.196078%);stroke-opacity:1;stroke-dasharray:40.8475,40.8475;stroke-miterlimit:10;" d="M 890.586914 260.973916 C 924.111084 326.843876 941.566772 399.634955 941.566772 473.5 C 941.566772 731.848664 731.86731 941.630166 473.5 941.630166 C 215.13269 941.630166 5.433228 731.848664 5.433228 473.5 C 5.433228 215.151336 215.13269 5.369834 473.5 5.369834 C 556.616821 5.369834 638.115234 27.445817 709.671997 69.330519 " transform="matrix(0.0337909,0,0,0.032735,0,0)"/>
</g>
</svg>
